<svg width="58" height="60" viewBox="0 0 58 60" fill="none" xmlns="http://www.w3.org/2000/svg">
<path d="M55.9037 37.7325C53.3132 33.2459 47.5856 31.7104 43.0981 34.3014L38.3382 37.0494V26.8733C38.3382 25.6153 37.9222 24.3669 37.1665 23.3579L31.3074 15.5461V12.2196C32.6713 11.7359 33.6511 10.4334 33.6511 8.90566V3.51539C33.6508 1.57699 32.0738 0 30.1354 0H9.04274C7.10434 0 5.52723 1.57699 5.52723 3.51539V8.90578C5.52723 10.4333 6.50704 11.736 7.87086 12.2197V15.5462L2.01137 23.3585C1.25598 24.367 0.839966 25.6153 0.839966 26.8733V49.5679C0.839966 52.7986 3.46836 55.4269 6.69899 55.4269H25.5313C28.1587 59.8311 33.8243 61.3051 38.2653 58.7408L52.4727 50.538C56.9205 47.9695 58.5071 42.2436 55.9037 37.7325ZM7.87086 3.51539C7.87086 2.86922 8.39657 2.34352 9.04262 2.34352H30.1353C30.7815 2.34352 31.3072 2.86922 31.3072 3.51539V8.90578C31.3072 9.55195 30.7815 10.0775 30.1353 10.0775H9.04274C8.39657 10.0775 7.87098 9.55184 7.87098 8.90578V3.51539H7.87086ZM3.88684 24.7639L9.98012 16.6398C10.1322 16.4371 10.2145 16.1903 10.2145 15.9367V12.4213H28.9636V14.7649H18.4173C17.7702 14.7649 17.2454 15.2897 17.2454 15.9368C17.2454 16.5839 17.7702 17.1087 18.4173 17.1087H29.5495L35.2909 24.7636C35.6661 25.2646 35.8992 25.864 35.9696 26.4832H3.20856C3.27887 25.8639 3.51196 25.2645 3.88684 24.7639ZM6.69911 53.0832C4.76071 53.0832 3.18372 51.5063 3.18372 49.5679V48.3844H24.4738C24.1022 49.9037 24.1046 51.5265 24.5301 53.0834H6.69911V53.0832ZM25.3929 46.0523H3.1836V28.8266H35.9945V38.4023L28.8907 42.5041C27.4095 43.3597 26.2123 44.5777 25.3929 46.0523ZM37.0937 56.7111C33.7307 58.653 29.4335 57.5046 27.4903 54.1393C25.5378 50.7416 26.7211 46.4638 30.0628 44.5336L36.4234 40.8612L43.4543 53.0387L37.0937 56.7111ZM51.3008 48.5085L45.4839 51.867L38.4529 39.6892L44.2699 36.3311C47.635 34.3883 51.9308 35.5387 53.874 38.9041C55.8257 42.2864 54.6389 46.5809 51.3008 48.5085Z" fill="#FA3D3D"/>
</svg>
