<svg width="40" height="50" viewBox="0 0 40 50" fill="none" xmlns="http://www.w3.org/2000/svg">
<path d="M38.6648 8.73102C37.8499 5.68099 35.9047 3.13733 33.1877 1.56867C31.4101 0.542459 29.3857 0 27.3333 0C23.1206 0 19.2037 2.25163 17.1111 5.87623L9.69499 18.7211C9.69429 18.7223 9.69347 18.7233 9.69277 18.7245C9.69207 18.7257 9.6916 18.727 9.69089 18.7281L2.2746 31.5734C-0.970077 37.1934 0.962571 44.4054 6.58262 47.6501C8.35988 48.6762 10.3841 49.2186 12.4362 49.2186C16.2783 49.2186 19.8845 47.3586 22.0826 44.2431C22.1028 44.2146 22.1216 44.1851 22.1391 44.155L37.4949 17.6471C39.0625 14.9408 39.478 11.7745 38.6648 8.73102ZM20.1381 42.9333C18.3757 45.4024 15.5006 46.8748 12.4362 46.8748C10.7949 46.8748 9.17597 46.441 7.75449 45.6203C3.25358 43.0218 1.70589 37.246 4.30439 32.7451L11.1367 20.9112L13.6734 22.3757C13.6736 22.3758 13.6737 22.376 13.674 22.376C13.6741 22.3762 13.6743 22.3762 13.6744 22.3763L27.4418 30.3252L20.1381 42.9333ZM35.4668 16.472L28.6165 28.2974L15.8606 20.9325L19.139 15.2541C19.4625 14.6936 19.2706 13.9769 18.7101 13.6533C18.1496 13.3297 17.4329 13.5217 17.1093 14.0822L13.8309 19.7607L12.3085 18.8818L19.1406 7.04821C20.816 4.14631 23.9552 2.34374 27.3333 2.34374C28.9748 2.34374 30.5941 2.77757 32.0158 3.59846C34.1902 4.85377 35.7474 6.89154 36.4005 9.33606C37.0518 11.774 36.7202 14.3083 35.4668 16.472Z" fill="#FA3D3D"/>
</svg>
