<svg width="257" height="184" viewBox="0 0 257 184" fill="none" xmlns="http://www.w3.org/2000/svg">
<path d="M8.25262 0.40701L0.736905 10.0773L10.4072 17.593L17.9229 7.92273L8.25262 0.40701ZM256.538 161.973L239.368 159.69L245.975 175.701L256.538 161.973ZM7.84155 9.18659C7.96375 10.1614 8.09361 11.1451 8.23121 12.1373L11.2028 11.7252C11.067 10.7459 10.9388 9.77513 10.8182 8.81341L7.84155 9.18659ZM9.14193 18.1361C9.46431 20.0928 9.81567 22.0771 10.1967 24.0856L13.1441 23.5264C12.7676 21.5416 12.4205 19.5812 12.102 17.6484L9.14193 18.1361ZM11.3881 29.9882C11.805 31.9371 12.2493 33.9051 12.7214 35.8891L15.6399 35.1946C15.1731 33.2329 14.7339 31.2872 14.3217 29.3606L11.3881 29.9882ZM14.1905 41.7666C14.6944 43.6897 15.2241 45.6251 15.7804 47.5702L18.6648 46.7453C18.1147 44.8218 17.5908 42.908 17.0926 41.0064L14.1905 41.7666ZM17.5081 53.3646C18.1019 55.2774 18.7213 57.1972 19.3669 59.1217L22.2111 58.1676C21.5728 56.2648 20.9603 54.3666 20.3732 52.4752L17.5081 53.3646ZM21.3486 64.8134C22.0299 66.7005 22.7367 68.59 23.4692 70.4798L26.2664 69.3954C25.5424 67.5278 24.8438 65.6601 24.1703 63.7946L21.3486 64.8134ZM25.7187 76.0846C26.4877 77.9367 27.2821 79.787 28.1021 81.6335L30.8439 80.4158C30.0339 78.592 29.2492 76.7641 28.4893 74.9341L25.7187 76.0846ZM30.6282 87.1352C31.4883 88.9478 32.3739 90.7549 33.2852 92.5544L35.9616 91.1989C35.062 89.4228 34.1878 87.6389 33.3386 85.8491L30.6282 87.1352ZM36.0893 97.9134C37.0461 99.6836 38.0287 101.445 39.0377 103.194L41.6366 101.696C40.6416 99.9703 39.6724 98.2334 38.7285 96.487L36.0893 97.9134ZM42.1322 108.388C43.1885 110.105 44.2712 111.808 45.3807 113.497L47.8878 111.849C46.7949 110.186 45.7282 108.508 44.6871 106.816L42.1322 108.388ZM48.7796 118.5C49.9382 120.15 51.1239 121.784 52.337 123.399L54.7357 121.597C53.5422 120.008 52.3754 118.401 51.2347 116.776L48.7796 118.5ZM56.0537 128.18C57.3182 129.751 58.6103 131.302 59.9305 132.832L62.2013 130.871C60.9042 129.369 59.6342 127.844 58.391 126.299L56.0537 128.18ZM63.9725 137.348C65.3451 138.827 66.746 140.282 68.1755 141.711L70.2968 139.59C68.8941 138.187 67.5191 136.759 66.1714 135.307L63.9725 137.348ZM72.544 145.915C74.026 147.286 75.5368 148.631 77.0768 149.946L79.025 147.665C77.5159 146.376 76.035 145.058 74.5818 143.713L72.544 145.915ZM81.7662 153.787C83.3557 155.036 84.9744 156.253 86.6228 157.438L88.374 155.002C86.7605 153.842 85.1756 152.65 83.6189 151.428L81.7662 153.787ZM91.6178 160.868C93.3057 161.974 95.0227 163.047 96.7694 164.084L98.3012 161.505C96.593 160.49 94.9134 159.441 93.2621 158.359L91.6178 160.868ZM102.057 167.067C103.832 168.016 105.636 168.929 107.468 169.805L108.762 167.098C106.97 166.242 105.207 165.349 103.472 164.421L102.057 167.067ZM113.02 172.304C114.866 173.085 116.741 173.829 118.644 174.534L119.686 171.721C117.826 171.032 115.993 170.305 114.189 169.541L113.02 172.304ZM124.409 176.522C126.313 177.131 128.244 177.702 130.202 178.233L130.987 175.337C129.072 174.818 127.184 174.26 125.322 173.665L124.409 176.522ZM136.113 179.696C138.063 180.133 140.039 180.532 142.04 180.892L142.57 177.939C140.611 177.587 138.677 177.196 136.769 176.769L136.113 179.696ZM148.046 181.839C150.025 182.108 152.028 182.34 154.055 182.533L154.339 179.546C152.352 179.357 150.389 179.13 148.451 178.866L148.046 181.839ZM160.113 182.987C162.103 183.097 164.116 183.169 166.152 183.204L166.204 180.205C164.206 180.171 162.231 180.099 160.278 179.991L160.113 182.987ZM172.232 183.196C174.218 183.157 176.225 183.083 178.253 182.973L178.089 179.977C176.096 180.086 174.124 180.159 172.174 180.197L172.232 183.196ZM184.341 182.536C186.308 182.362 188.294 182.155 190.299 181.913L189.94 178.934C187.966 179.172 186.011 179.377 184.076 179.548L184.341 182.536ZM196.373 181.083C198.317 180.788 200.278 180.46 202.256 180.101L201.72 177.149C199.769 177.504 197.836 177.826 195.922 178.118L196.373 181.083ZM208.222 178.929C210.168 178.519 212.13 178.079 214.108 177.607L213.412 174.689C211.459 175.155 209.523 175.589 207.604 175.994L208.222 178.929ZM219.938 176.139C221.895 175.62 223.868 175.072 225.856 174.492L225.017 171.612C223.052 172.185 221.102 172.727 219.17 173.239L219.938 176.139ZM231.53 172.77C233.436 172.168 235.356 171.539 237.29 170.882L236.325 168.041C234.411 168.692 232.511 169.314 230.627 169.909L231.53 172.77ZM243.017 168.869C244.865 168.198 246.725 167.501 248.599 166.78L247.52 163.98C245.664 164.695 243.822 165.384 241.993 166.049L243.017 168.869Z" fill="#C9CCCD"/>
</svg>
