<svg width="200" height="313" viewBox="0 0 221 313" fill="none" xmlns="http://www.w3.org/2000/svg">
<path d="M7.71376 311.831C8.13998 312.542 9.06137 312.772 9.77174 312.346L21.3479 305.4C22.0583 304.974 22.2886 304.052 21.8624 303.342C21.4362 302.632 20.5148 302.401 19.8044 302.828L9.5145 309.002L3.34055 298.712C2.91432 298.001 1.99293 297.771 1.28256 298.197C0.572193 298.623 0.341846 299.545 0.768068 300.255L7.71376 311.831ZM16.1189 293.323L14.7651 292.677L16.1189 293.323ZM50.5065 221.893L51.8464 222.567L50.5065 221.893ZM95.2105 151.67L96.4045 152.578L95.2105 151.67ZM130.021 120.117L130.777 121.413L130.021 120.117ZM155.359 107.147L155.803 108.579L155.359 107.147ZM168.269 105.819L168.252 104.319L168.269 105.819ZM183.472 105.819L183.553 104.322L183.472 105.819ZM210.017 122.591L208.798 123.465L210.017 122.591ZM208.328 171.337L209.51 172.261L208.328 171.337ZM182.266 199.088L183.238 200.231L182.266 199.088ZM164.288 210.068L164.245 208.569L164.288 210.068ZM144.198 199.209L145.088 198.002L144.198 199.209ZM135.028 185.394L133.602 185.859L135.028 185.394ZM132.856 168.019L134.356 167.994L132.856 168.019ZM138.225 113.903L136.783 113.493L138.225 113.903ZM169.536 29.3218L168.173 28.695L169.536 29.3218ZM189.511 1.58998L177.338 0.237478L175.986 12.41L188.158 13.7625L189.511 1.58998ZM11.4208 308.075C11.677 307.287 11.2462 306.44 10.4584 306.184C9.67061 305.928 8.82422 306.359 8.56793 307.147L11.4208 308.075ZM13.2179 295.922C12.8636 296.671 13.1834 297.565 13.9323 297.919C14.6811 298.274 15.5754 297.954 15.9297 297.205L13.2179 295.922ZM18.7525 291.284C19.1088 290.536 18.7913 289.641 18.0434 289.285C17.2955 288.929 16.4004 289.246 16.0441 289.994L18.7525 291.284ZM20.2963 281.046C19.9413 281.794 20.2603 282.689 21.0088 283.044C21.7573 283.399 22.6518 283.08 23.0069 282.331L20.2963 281.046ZM25.554 276.958C25.9088 276.21 25.5895 275.315 24.8409 274.96C24.0922 274.606 23.1978 274.925 22.843 275.674L25.554 276.958ZM27.0882 266.718C26.7331 267.467 27.0519 268.361 27.8004 268.716C28.5488 269.072 29.4435 268.753 29.7986 268.004L27.0882 266.718ZM32.3491 262.635C32.7049 261.887 32.3869 260.992 31.6388 260.636C30.8907 260.28 29.9957 260.598 29.6399 261.346L32.3491 262.635ZM33.9088 252.399C33.551 253.146 33.8667 254.042 34.6138 254.399C35.361 254.757 36.2568 254.442 36.6146 253.694L33.9088 252.399ZM39.1868 248.337C39.5462 247.591 39.2326 246.695 38.4862 246.335C37.7398 245.976 36.8433 246.289 36.4839 247.036L39.1868 248.337ZM40.807 238.111C40.444 238.855 40.7534 239.753 41.4981 240.116C42.2427 240.479 43.1407 240.17 43.5037 239.425L40.807 238.111ZM46.1159 234.09C46.4815 233.346 46.1752 232.447 45.4318 232.082C44.6885 231.716 43.7894 232.022 43.4238 232.766L46.1159 234.09ZM47.8316 223.879C47.4609 224.62 47.7609 225.521 48.5017 225.891C49.2426 226.262 50.1437 225.962 50.5144 225.221L47.8316 223.879ZM53.2582 219.793C53.6372 219.056 53.3472 218.152 52.6106 217.773C51.8739 217.394 50.9695 217.684 50.5905 218.421L53.2582 219.793ZM55.5089 209.186C55.1092 209.912 55.3736 210.824 56.0992 211.224C56.8249 211.624 57.7371 211.359 58.1367 210.634L55.5089 209.186ZM61.1852 205.203C61.5965 204.484 61.347 203.567 60.6278 203.156C59.9087 202.745 58.9923 202.994 58.5811 203.713L61.1852 205.203ZM63.89 194.703C63.4605 195.411 63.6866 196.334 64.395 196.763C65.1033 197.193 66.0258 196.966 66.4553 196.258L63.89 194.703ZM69.7244 190.954C70.1642 190.252 69.9515 189.327 69.2495 188.887C68.5474 188.447 67.6217 188.66 67.182 189.362L69.7244 190.954ZM72.8338 180.567C72.3781 181.259 72.5695 182.189 73.2613 182.645C73.9531 183.1 74.8834 182.909 75.3391 182.217L72.8338 180.567ZM78.8015 177.035C79.2662 176.349 79.0868 175.416 78.401 174.951C77.7151 174.487 76.7825 174.666 76.3178 175.352L78.8015 177.035ZM82.268 166.76C81.7895 167.437 81.9499 168.373 82.6261 168.851C83.3024 169.33 84.2385 169.17 84.717 168.493L82.268 166.76ZM88.3475 163.424C88.8337 162.753 88.6841 161.816 88.0133 161.329C87.3426 160.843 86.4047 160.993 85.9185 161.664L88.3475 163.424ZM92.1261 153.261C91.628 153.923 91.7608 154.863 92.4228 155.361C93.0847 155.859 94.0251 155.727 94.5232 155.065L92.1261 153.261ZM98.1984 150.263C98.712 149.613 98.6014 148.67 97.9515 148.156C97.3015 147.643 96.3582 147.753 95.8446 148.403L98.1984 150.263ZM102.28 140.805C101.722 141.418 101.766 142.367 102.379 142.924C102.991 143.482 103.94 143.438 104.498 142.826L102.28 140.805ZM108.531 138.601C109.117 138.016 109.118 137.066 108.532 136.48C107.947 135.894 106.997 135.893 106.411 136.478L108.531 138.601ZM113.765 129.733C113.131 130.266 113.049 131.213 113.582 131.847C114.115 132.481 115.061 132.563 115.695 132.03L113.765 129.733ZM120.258 128.401C120.92 127.903 121.053 126.963 120.556 126.301C120.058 125.639 119.117 125.506 118.455 126.004L120.258 128.401ZM126.697 120.367C125.993 120.804 125.776 121.729 126.213 122.433C126.65 123.137 127.574 123.353 128.278 122.917L126.697 120.367ZM133.09 120.048C133.802 119.625 134.037 118.705 133.614 117.993C133.191 117.28 132.271 117.046 131.558 117.469L133.09 120.048ZM139.267 112.934C138.547 113.344 138.296 114.26 138.706 114.979C139.116 115.699 140.032 115.951 140.752 115.541L139.267 112.934ZM145.395 113.006C146.13 112.625 146.418 111.719 146.037 110.984C145.655 110.248 144.75 109.961 144.015 110.342L145.395 113.006ZM152.306 106.605C151.529 106.893 151.133 107.757 151.422 108.533C151.71 109.31 152.574 109.705 153.35 109.417L152.306 106.605ZM158.008 108.042C158.822 107.887 159.357 107.103 159.203 106.289C159.049 105.475 158.264 104.94 157.45 105.094L158.008 108.042ZM165.793 104.36C164.964 104.38 164.309 105.067 164.329 105.895C164.349 106.724 165.036 107.379 165.864 107.359L165.793 104.36ZM171.148 107.274C171.976 107.259 172.635 106.575 172.62 105.746C172.605 104.918 171.921 104.259 171.092 104.274L171.148 107.274ZM180.656 104.214C179.828 104.196 179.142 104.853 179.124 105.681C179.105 106.509 179.762 107.196 180.59 107.214L180.656 104.214ZM186.301 107.604C187.121 107.723 187.882 107.156 188.002 106.336C188.121 105.516 187.554 104.755 186.734 104.635L186.301 107.604ZM196.866 107.981C196.139 107.585 195.228 107.853 194.832 108.581C194.435 109.308 194.704 110.219 195.431 110.616L196.866 107.981ZM200.233 113.899C200.87 114.429 201.815 114.342 202.345 113.705C202.875 113.068 202.788 112.122 202.151 111.593L200.233 113.899ZM209.37 119.217C208.861 118.563 207.919 118.446 207.265 118.955C206.612 119.464 206.495 120.407 207.004 121.06L209.37 119.217ZM210.665 126.184C211.119 126.877 212.048 127.071 212.741 126.617C213.434 126.163 213.628 125.233 213.174 124.54L210.665 126.184ZM218.498 134.707C218.204 133.933 217.338 133.543 216.564 133.837C215.789 134.131 215.4 134.997 215.693 135.772L218.498 134.707ZM217.368 141.935C217.498 142.753 218.267 143.311 219.085 143.181C219.904 143.05 220.461 142.282 220.331 141.463L217.368 141.935ZM219.812 153.149C220.011 152.345 219.521 151.531 218.717 151.332C217.913 151.132 217.1 151.622 216.9 152.426L219.812 153.149ZM214.738 158.463C214.389 159.215 214.717 160.106 215.468 160.455C216.22 160.803 217.112 160.476 217.46 159.724L214.738 158.463ZM211.565 169.534C212.051 168.863 211.901 167.926 211.23 167.439C210.56 166.953 209.622 167.103 209.136 167.774L211.565 169.534ZM204.938 173.199C204.419 173.844 204.521 174.788 205.167 175.308C205.813 175.827 206.757 175.724 207.276 175.079L204.938 173.199ZM199.522 184.232C200.075 183.614 200.023 182.666 199.405 182.113C198.788 181.561 197.84 181.613 197.287 182.23L199.522 184.232ZM192.458 187.426C191.882 188.021 191.899 188.971 192.494 189.547C193.09 190.122 194.04 190.106 194.615 189.51L192.458 187.426ZM185.959 197.856C186.577 197.304 186.63 196.356 186.078 195.738C185.526 195.121 184.577 195.068 183.96 195.62L185.959 197.856ZM178.249 200.608C177.626 201.154 177.563 202.101 178.109 202.725C178.655 203.348 179.603 203.41 180.226 202.865L178.249 200.608ZM168.732 210.652C169.508 210.362 169.903 209.498 169.613 208.722C169.323 207.946 168.459 207.552 167.683 207.842L168.732 210.652ZM160.382 208.06C159.586 207.831 158.755 208.292 158.527 209.088C158.298 209.884 158.759 210.715 159.555 210.943L160.382 208.06ZM146.708 203.068C147.354 203.586 148.298 203.483 148.816 202.836C149.335 202.19 149.231 201.246 148.585 200.728L146.708 203.068ZM142.888 196.086C142.307 195.495 141.357 195.487 140.767 196.069C140.176 196.65 140.169 197.599 140.75 198.19L142.888 196.086ZM134.755 188.937C135.079 189.699 135.96 190.054 136.723 189.73C137.485 189.406 137.84 188.525 137.516 187.763L134.755 188.937ZM135.62 181.886C135.437 181.078 134.634 180.57 133.826 180.753C133.018 180.935 132.511 181.738 132.693 182.547L135.62 181.886ZM131.436 171.365C131.464 172.193 132.158 172.841 132.986 172.813C133.814 172.785 134.463 172.09 134.434 171.262L131.436 171.365ZM134.312 164.594C134.304 163.765 133.626 163.1 132.798 163.108C131.969 163.115 131.304 163.793 131.312 164.622L134.312 164.594ZM131.388 153.199C131.367 154.027 132.022 154.715 132.85 154.736C133.678 154.757 134.366 154.103 134.388 153.275L131.388 153.199ZM134.654 146.501C134.699 145.674 134.065 144.967 133.238 144.922C132.411 144.877 131.704 145.511 131.659 146.338L134.654 146.501ZM132.616 134.916C132.521 135.739 133.11 136.484 133.933 136.579C134.756 136.675 135.501 136.086 135.596 135.263L132.616 134.916ZM136.524 128.572C136.657 127.754 136.101 126.984 135.284 126.851C134.466 126.718 133.695 127.274 133.563 128.092L136.524 128.572ZM135.885 116.829C135.681 117.632 136.167 118.448 136.97 118.652C137.773 118.855 138.589 118.37 138.793 117.567L135.885 116.829ZM140.445 111.61C140.676 110.815 140.219 109.983 139.423 109.752C138.627 109.521 137.795 109.978 137.564 110.774L140.445 111.61ZM140.268 101.742C140.024 102.533 140.468 103.373 141.259 103.617C142.051 103.861 142.891 103.417 143.135 102.626L140.268 101.742ZM144.819 97.2557C145.071 96.4665 144.635 95.6226 143.846 95.3708C143.057 95.119 142.213 95.5547 141.961 96.344L144.819 97.2557ZM144.898 87.3852C144.634 88.1703 145.056 89.0211 145.841 89.2854C146.626 89.5498 147.477 89.1276 147.741 88.3425L144.898 87.3852ZM149.563 83.0172C149.835 82.2346 149.421 81.3799 148.638 81.1081C147.855 80.8363 147.001 81.2503 146.729 82.0329L149.563 83.0172ZM149.892 73.1517C149.608 73.9299 150.008 74.7911 150.787 75.0751C151.565 75.3592 152.426 74.9586 152.71 74.1804L149.892 73.1517ZM154.665 68.9024C154.956 68.1268 154.563 67.262 153.788 66.9707C153.012 66.6793 152.148 67.0718 151.856 67.8473L154.665 68.9024ZM155.24 59.0482C154.937 59.8191 155.316 60.6899 156.087 60.9934C156.858 61.2968 157.729 60.9179 158.032 60.147L155.24 59.0482ZM160.118 54.9196C160.429 54.1516 160.058 53.2772 159.29 52.9665C158.522 52.6558 157.648 53.0265 157.337 53.7945L160.118 54.9196ZM160.942 45.083C160.619 45.8459 160.976 46.7261 161.739 47.0489C162.502 47.3717 163.382 47.0149 163.704 46.2519L160.942 45.083ZM165.922 41.0793C166.252 40.3195 165.904 39.436 165.144 39.1058C164.384 38.7757 163.501 39.124 163.171 39.8839L165.922 41.0793ZM166.998 31.2677C166.655 32.022 166.989 32.9111 167.744 33.2536C168.498 33.5961 169.387 33.2622 169.729 32.5078L166.998 31.2677ZM171.913 27.6837C172.246 26.925 171.9 26.0403 171.142 25.7076C170.383 25.3749 169.498 25.7202 169.165 26.4789L171.913 27.6837ZM172.507 18.9586C172.152 19.707 172.471 20.6016 173.219 20.9567C173.968 21.3118 174.862 20.993 175.218 20.2445L172.507 18.9586ZM177.419 15.9831C177.829 15.2636 177.579 14.3474 176.86 13.9368C176.14 13.5261 175.224 13.7765 174.813 14.496L177.419 15.9831ZM179.86 7.59753C179.28 8.18875 179.289 9.13846 179.88 9.71875C180.471 10.299 181.421 10.2902 182.001 9.69896L179.86 7.59753ZM10.4552 311.423C10.739 310.288 11.063 309.174 11.4208 308.075L8.56793 307.147C8.19066 308.306 7.8469 309.487 7.54479 310.696L10.4552 311.423ZM15.9297 297.205C16.4371 296.132 16.9519 295.06 17.4726 293.969L14.7651 292.677C14.2482 293.76 13.7281 294.843 13.2179 295.922L15.9297 297.205ZM17.4726 293.969C17.8996 293.074 18.3262 292.179 18.7525 291.284L16.0441 289.994C15.6181 290.889 15.1918 291.783 14.7651 292.677L17.4726 293.969ZM23.0069 282.331C23.8563 280.541 24.7052 278.749 25.554 276.958L22.843 275.674C21.9943 277.465 21.1455 279.255 20.2963 281.046L23.0069 282.331ZM29.7986 268.004C30.648 266.214 31.4981 264.424 32.3491 262.635L29.6399 261.346C28.7884 263.137 27.938 264.927 27.0882 266.718L29.7986 268.004ZM36.6146 253.694C37.4701 251.908 38.3274 250.122 39.1868 248.337L36.4839 247.036C35.6234 248.822 34.7652 250.61 33.9088 252.399L36.6146 253.694ZM43.5037 239.425C44.3714 237.645 45.242 235.867 46.1159 234.09L43.4238 232.766C42.5483 234.546 41.6762 236.328 40.807 238.111L43.5037 239.425ZM50.5144 225.221C50.9574 224.336 51.4014 223.451 51.8464 222.567L49.1667 221.218C48.7206 222.105 48.2756 222.991 47.8316 223.879L50.5144 225.221ZM51.8464 222.567C52.3129 221.641 52.7835 220.716 53.2582 219.793L50.5905 218.421C50.1118 219.351 49.6372 220.284 49.1667 221.218L51.8464 222.567ZM58.1367 210.634C59.138 208.815 60.1544 207.005 61.1852 205.203L58.5811 203.713C57.5423 205.53 56.518 207.354 55.5089 209.186L58.1367 210.634ZM66.4553 196.258C67.5319 194.483 68.6218 192.715 69.7244 190.954L67.182 189.362C66.0718 191.134 64.9742 192.914 63.89 194.703L66.4553 196.258ZM75.3391 182.217C76.4818 180.482 77.6362 178.755 78.8015 177.035L76.3178 175.352C75.1454 177.083 73.9838 178.821 72.8338 180.567L75.3391 182.217ZM84.717 168.493C85.9175 166.796 87.1279 165.107 88.3475 163.424L85.9185 161.664C84.6923 163.355 83.4753 165.054 82.268 166.76L84.717 168.493ZM94.5232 155.065C95.1483 154.234 95.7755 153.405 96.4045 152.578L94.0165 150.762C93.3844 151.593 92.7542 152.426 92.1261 153.261L94.5232 155.065ZM96.4045 152.578C96.9982 151.797 97.596 151.025 98.1984 150.263L95.8446 148.403C95.2303 149.18 94.6212 149.967 94.0165 150.762L96.4045 152.578ZM104.498 142.826C105.815 141.379 107.158 139.972 108.531 138.601L106.411 136.478C105.004 137.883 103.628 139.325 102.28 140.805L104.498 142.826ZM115.695 132.03C117.179 130.784 118.698 129.575 120.258 128.401L118.455 126.004C116.852 127.21 115.29 128.453 113.765 129.733L115.695 132.03ZM128.278 122.917C129.1 122.407 129.933 121.906 130.777 121.413L129.264 118.822C128.397 119.329 127.542 119.844 126.697 120.367L128.278 122.917ZM130.777 121.413C131.541 120.966 132.313 120.51 133.09 120.048L131.558 117.469C130.784 117.929 130.019 118.381 129.264 118.822L130.777 121.413ZM140.752 115.541C142.288 114.666 143.837 113.813 145.395 113.006L144.015 110.342C142.412 111.173 140.828 112.045 139.267 112.934L140.752 115.541ZM153.35 109.417C154.169 109.113 154.987 108.832 155.803 108.579L154.914 105.714C154.042 105.985 153.172 106.283 152.306 106.605L153.35 109.417ZM155.803 108.579C156.487 108.367 157.226 108.189 158.008 108.042L157.45 105.094C156.58 105.259 155.727 105.462 154.914 105.714L155.803 108.579ZM165.864 107.359C166.699 107.339 167.511 107.328 168.287 107.319L168.252 104.319C167.474 104.329 166.647 104.339 165.793 104.36L165.864 107.359ZM168.287 107.319C169.239 107.308 170.194 107.292 171.148 107.274L171.092 104.274C170.14 104.292 169.193 104.308 168.252 104.319L168.287 107.319ZM180.59 107.214C181.53 107.234 182.464 107.268 183.392 107.317L183.553 104.322C182.589 104.27 181.623 104.236 180.656 104.214L180.59 107.214ZM183.392 107.317C184.396 107.371 185.365 107.467 186.301 107.604L186.734 104.635C185.704 104.485 184.645 104.38 183.553 104.322L183.392 107.317ZM195.431 110.616C197.124 111.538 198.715 112.637 200.233 113.899L202.151 111.593C200.499 110.219 198.747 109.005 196.866 107.981L195.431 110.616ZM207.004 121.06C207.608 121.836 208.205 122.638 208.798 123.465L211.236 121.717C210.622 120.861 210.001 120.027 209.37 119.217L207.004 121.06ZM208.798 123.465C209.459 124.386 210.081 125.292 210.665 126.184L213.174 124.54C212.566 123.61 211.919 122.67 211.236 121.717L208.798 123.465ZM215.693 135.772C216.495 137.883 217.049 139.93 217.368 141.935L220.331 141.463C219.976 139.237 219.365 136.992 218.498 134.707L215.693 135.772ZM216.9 152.426C216.408 154.407 215.688 156.411 214.738 158.463L217.46 159.724C218.48 157.521 219.269 155.336 219.812 153.149L216.9 152.426ZM209.136 167.774C208.507 168.642 207.844 169.521 207.146 170.413L209.51 172.261C210.228 171.342 210.913 170.434 211.565 169.534L209.136 167.774ZM207.146 170.413C206.417 171.346 205.681 172.275 204.938 173.199L207.276 175.079C208.028 174.144 208.772 173.204 209.51 172.261L207.146 170.413ZM197.287 182.23C195.709 183.992 194.1 185.726 192.458 187.426L194.615 189.51C196.285 187.782 197.92 186.02 199.522 184.232L197.287 182.23ZM183.96 195.62C183.08 196.406 182.192 197.182 181.294 197.946L183.238 200.231C184.155 199.45 185.062 198.658 185.959 197.856L183.96 195.62ZM181.294 197.946C180.35 198.749 179.312 199.677 178.249 200.608L180.226 202.865C181.323 201.904 182.316 201.016 183.238 200.231L181.294 197.946ZM167.683 207.842C166.501 208.283 165.353 208.537 164.245 208.569L164.33 211.568C165.836 211.525 167.313 211.182 168.732 210.652L167.683 207.842ZM164.245 208.569C162.926 208.607 161.643 208.421 160.382 208.06L159.555 210.943C161.077 211.38 162.668 211.615 164.33 211.568L164.245 208.569ZM148.585 200.728C147.422 199.795 146.252 198.859 145.088 198.002L143.308 200.417C144.415 201.233 145.539 202.131 146.708 203.068L148.585 200.728ZM145.088 198.002C144.311 197.429 143.578 196.787 142.888 196.086L140.75 198.19C141.542 198.995 142.395 199.743 143.308 200.417L145.088 198.002ZM137.516 187.763C137.117 186.824 136.763 185.875 136.454 184.928L133.602 185.859C133.937 186.885 134.321 187.916 134.755 188.937L137.516 187.763ZM136.454 184.928C136.126 183.926 135.851 182.911 135.62 181.886L132.693 182.547C132.944 183.655 133.243 184.761 133.602 185.859L136.454 184.928ZM134.434 171.262C134.397 170.177 134.374 169.088 134.356 167.994L131.356 168.044C131.374 169.146 131.398 170.255 131.436 171.365L134.434 171.262ZM134.356 167.994C134.337 166.86 134.322 165.727 134.312 164.594L131.312 164.622C131.322 165.763 131.337 166.903 131.356 168.044L134.356 167.994ZM134.388 153.275C134.445 151.013 134.532 148.754 134.654 146.501L131.659 146.338C131.535 148.623 131.447 150.911 131.388 153.199L134.388 153.275ZM135.596 135.263C135.857 133.025 136.164 130.794 136.524 128.572L133.563 128.092C133.195 130.361 132.882 132.636 132.616 134.916L135.596 135.263ZM138.793 117.567C139.069 116.48 139.36 115.396 139.668 114.314L136.783 113.493C136.467 114.603 136.168 115.715 135.885 116.829L138.793 117.567ZM139.668 114.314C139.925 113.413 140.184 112.512 140.445 111.61L137.564 110.774C137.301 111.681 137.041 112.587 136.783 113.493L139.668 114.314ZM143.135 102.626C143.687 100.836 144.248 99.0455 144.819 97.2557L141.961 96.344C141.387 98.1429 140.823 99.9424 140.268 101.742L143.135 102.626ZM147.741 88.3425C148.34 86.5659 148.947 84.7906 149.563 83.0172L146.729 82.0329C146.11 83.8153 145.5 85.5995 144.898 87.3852L147.741 88.3425ZM152.71 74.1804C153.353 72.4181 154.005 70.6586 154.665 68.9024L151.856 67.8473C151.193 69.6123 150.538 71.3806 149.892 73.1517L152.71 74.1804ZM158.032 60.147C158.72 58.4001 159.415 56.6574 160.118 54.9196L157.337 53.7945C156.63 55.5411 155.932 57.2925 155.24 59.0482L158.032 60.147ZM163.704 46.2519C164.437 44.5218 165.176 42.7974 165.922 41.0793L163.171 39.8839C162.42 41.6108 161.677 43.344 160.942 45.083L163.704 46.2519ZM169.729 32.5078C170.118 31.6529 170.507 30.7998 170.899 29.9487L168.173 28.695C167.78 29.5507 167.388 30.4082 166.998 31.2677L169.729 32.5078ZM170.899 29.9487C171.238 29.2112 171.575 28.4533 171.913 27.6837L169.165 26.4789C168.832 27.2397 168.502 27.9798 168.173 28.695L170.899 29.9487ZM175.218 20.2445C175.91 18.7848 176.637 17.3525 177.419 15.9831L174.813 14.496C173.984 15.9497 173.221 17.4529 172.507 18.9586L175.218 20.2445ZM182.001 9.69896C182.54 9.1498 183.101 8.63909 183.685 8.1713L181.811 5.8287C181.125 6.37753 180.476 6.96993 179.86 7.59753L182.001 9.69896Z" fill="#C9CCCD"/>
</svg>
