<svg width="276" height="297" viewBox="0 0 276 297" fill="none" xmlns="http://www.w3.org/2000/svg">
<path d="M193.766 90.7596L185.737 81.5114L176.489 89.5408L184.518 98.789L193.766 90.7596ZM110.99 71.9628L111.317 70.4989L110.99 71.9628ZM22.3447 77.8307L23.1337 79.1064L22.3447 77.8307ZM63.3791 150.579L63.6836 149.111L63.3791 150.579ZM125.323 145.843L125.86 147.243L125.323 145.843ZM142.789 193.099L141.372 193.593L142.789 193.099ZM270.515 201.331C270.767 200.542 270.33 199.698 269.541 199.447L256.677 195.351C255.888 195.1 255.044 195.536 254.793 196.325C254.542 197.114 254.978 197.958 255.767 198.209L267.201 201.85L263.561 213.285C263.309 214.074 263.745 214.918 264.535 215.169C265.324 215.42 266.168 214.984 266.419 214.195L270.515 201.331ZM265.748 200.895C265.008 201.268 264.71 202.17 265.083 202.91C265.456 203.65 266.358 203.947 267.098 203.575L265.748 200.895ZM258.015 207.952C258.768 207.606 259.097 206.715 258.75 205.962C258.404 205.21 257.513 204.881 256.76 205.227L258.015 207.952ZM251.304 207.669C250.544 207.999 250.196 208.883 250.526 209.643C250.856 210.402 251.739 210.751 252.499 210.421L251.304 207.669ZM243.171 214.263C243.943 213.963 244.326 213.093 244.025 212.321C243.725 211.549 242.856 211.167 242.084 211.467L243.171 214.263ZM236.481 213.565C235.701 213.846 235.297 214.705 235.577 215.485C235.858 216.264 236.717 216.669 237.496 216.388L236.481 213.565ZM227.92 219.584C228.712 219.341 229.158 218.502 228.915 217.71C228.672 216.918 227.833 216.473 227.041 216.716L227.92 219.584ZM221.309 218.373C220.51 218.59 220.037 219.414 220.254 220.214C220.471 221.013 221.295 221.486 222.095 221.269L221.309 218.373ZM212.249 223.616C213.061 223.451 213.585 222.658 213.419 221.847C213.254 221.035 212.461 220.511 211.65 220.677L212.249 223.616ZM205.797 221.736C204.978 221.864 204.419 222.632 204.548 223.45C204.676 224.269 205.444 224.828 206.262 224.699L205.797 221.736ZM196.168 225.835C196.994 225.782 197.621 225.068 197.568 224.242C197.514 223.415 196.801 222.788 195.974 222.841L196.168 225.835ZM190.069 223.029C189.24 223.027 188.567 223.697 188.565 224.525C188.562 225.353 189.232 226.027 190.061 226.029L190.069 223.029ZM179.852 225.318C180.672 225.436 181.432 224.867 181.55 224.047C181.668 223.227 181.099 222.466 180.279 222.349L179.852 225.318ZM174.533 221.224C173.73 221.022 172.915 221.509 172.713 222.312C172.51 223.116 172.997 223.931 173.801 224.133L174.533 221.224ZM164.103 220.611C164.846 220.977 165.745 220.67 166.111 219.927C166.477 219.184 166.171 218.285 165.428 217.919L164.103 220.611ZM160.428 214.998C159.745 214.529 158.811 214.702 158.342 215.385C157.873 216.068 158.047 217.002 158.729 217.471L160.428 214.998ZM150.974 210.575C151.52 211.198 152.468 211.26 153.09 210.713C153.713 210.167 153.775 209.219 153.229 208.596L150.974 210.575ZM149.731 203.994C149.275 203.302 148.345 203.111 147.653 203.566C146.961 204.021 146.769 204.951 147.224 205.643L149.731 203.994ZM142.472 196.515C142.784 197.283 143.659 197.652 144.426 197.341C145.194 197.029 145.564 196.154 145.252 195.387L142.472 196.515ZM143.455 189.598C143.284 188.788 142.488 188.269 141.677 188.44C140.867 188.611 140.348 189.407 140.519 190.218L143.455 189.598ZM138.437 179.338C138.593 180.151 139.378 180.685 140.192 180.53C141.006 180.375 141.54 179.589 141.384 178.776L138.437 179.338ZM140.089 172.25C139.92 171.439 139.125 170.919 138.314 171.088C137.503 171.257 136.983 172.051 137.152 172.862L140.089 172.25ZM134.637 162.205C134.855 163.004 135.68 163.475 136.479 163.256C137.278 163.038 137.749 162.213 137.531 161.414L134.637 162.205ZM135.531 154.984C135.25 154.204 134.391 153.8 133.612 154.08C132.832 154.36 132.427 155.219 132.708 155.999L135.531 154.984ZM127.701 147.453C128.406 147.888 129.33 147.669 129.765 146.964C130.2 146.259 129.981 145.335 129.276 144.9L127.701 147.453ZM122.066 145.432C121.282 145.702 120.867 146.556 121.137 147.339C121.407 148.123 122.261 148.538 123.044 148.268L122.066 145.432ZM113.46 151.029C114.266 150.839 114.765 150.031 114.575 149.224C114.384 148.418 113.576 147.919 112.77 148.109L113.46 151.029ZM107.076 149.294C106.26 149.442 105.719 150.222 105.867 151.038C106.014 151.853 106.795 152.394 107.61 152.246L107.076 149.294ZM97.758 153.614C98.5825 153.534 99.1853 152.8 99.1044 151.975C99.0235 151.151 98.2896 150.548 97.4652 150.629L97.758 153.614ZM91.6558 151.061C90.8285 151.103 90.1918 151.807 90.2338 152.635C90.2758 153.462 90.9805 154.099 91.8079 154.057L91.6558 151.061ZM81.8645 154.169C82.6926 154.193 83.3832 153.541 83.407 152.712C83.4308 151.884 82.7788 151.194 81.9507 151.17L81.8645 154.169ZM76.1389 150.858C75.313 150.792 74.5905 151.408 74.525 152.234C74.4595 153.06 75.0759 153.783 75.9017 153.848L76.1389 150.858ZM66.0146 152.609C66.8307 152.751 67.6078 152.205 67.7502 151.389C67.8927 150.573 67.3466 149.796 66.5305 149.654L66.0146 152.609ZM60.5264 148.43C59.7181 148.248 58.9156 148.756 58.7339 149.564C58.5522 150.373 59.0602 151.175 59.8684 151.357L60.5264 148.43ZM49.2633 148.484C50.0496 148.745 50.8985 148.319 51.1593 147.533C51.4201 146.746 50.9941 145.898 50.2078 145.637L49.2633 148.484ZM44.2788 143.355C43.5224 143.017 42.6353 143.356 42.2974 144.113C41.9595 144.869 42.2987 145.756 43.0551 146.094L44.2788 143.355ZM33.4285 140.439C34.0864 140.942 35.0278 140.817 35.5312 140.159C36.0347 139.501 35.9094 138.56 35.2515 138.056L33.4285 140.439ZM30.592 133.871C30.0209 133.271 29.0715 133.247 28.4714 133.819C27.8713 134.39 27.8478 135.339 28.4189 135.939L30.592 133.871ZM21.7431 126.997C22.1635 127.711 23.0829 127.949 23.7968 127.528C24.5106 127.108 24.7485 126.189 24.3281 125.475L21.7431 126.997ZM21.3092 119.824C20.9294 119.088 20.0246 118.799 19.2884 119.178C18.5522 119.558 18.2632 120.463 18.643 121.199L21.3092 119.824ZM13.8991 111.404C14.2279 112.165 15.1109 112.514 15.8713 112.186C16.6317 111.857 16.9815 110.974 16.6527 110.214L13.8991 111.404ZM14.4208 104.311C14.1725 103.52 13.3305 103.081 12.5402 103.329C11.7499 103.577 11.3105 104.419 11.5588 105.21L14.4208 104.311ZM9.91727 94.0635C9.86797 94.8905 10.4984 95.6008 11.3253 95.6501C12.1523 95.6994 12.8626 95.069 12.912 94.242L9.91727 94.0635ZM14.2631 88.4927C14.5957 87.734 14.2502 86.8493 13.4915 86.5168C12.7327 86.1842 11.848 86.5297 11.5155 87.2884L14.2631 88.4927ZM18.7573 78.4732C18.0986 78.9755 17.9718 79.9168 18.4741 80.5755C18.9764 81.2343 19.9177 81.3611 20.5764 80.8588L18.7573 78.4732ZM25.5081 77.7354C26.2374 77.3423 26.5099 76.4325 26.1169 75.7033C25.7238 74.974 24.814 74.7015 24.0848 75.0946L25.5081 77.7354ZM32.9588 71.2434C32.1759 71.5143 31.7608 72.3685 32.0317 73.1514C32.3025 73.9343 33.1568 74.3494 33.9397 74.0785L32.9588 71.2434ZM39.2545 72.4666C40.0555 72.2551 40.5333 71.4343 40.3218 70.6333C40.1103 69.8324 39.2895 69.3545 38.4885 69.5661L39.2545 72.4666ZM47.8791 67.6012C47.0611 67.7322 46.5041 68.5015 46.6351 69.3195C46.766 70.1375 47.5353 70.6945 48.3533 70.5635L47.8791 67.6012ZM53.8957 69.817C54.7191 69.7259 55.3128 68.9845 55.2217 68.1611C55.1306 67.3377 54.3892 66.7441 53.5658 66.8352L53.8957 69.817ZM63.085 66.1203C62.2573 66.155 61.6144 66.8542 61.6492 67.6819C61.6839 68.5096 62.3831 69.1524 63.2108 69.1177L63.085 66.1203ZM68.8225 68.9831C69.651 68.9777 70.3181 68.3017 70.3127 67.4733C70.3072 66.6449 69.6313 65.9777 68.8029 65.9832L68.8225 68.9831ZM78.3234 66.1769C77.4958 66.1386 76.7939 66.7785 76.7557 67.606C76.7174 68.4335 77.3573 69.1354 78.1848 69.1737L78.3234 66.1769ZM83.7983 69.516C84.6243 69.5784 85.3446 68.9593 85.407 68.1332C85.4694 67.3071 84.8503 66.5869 84.0242 66.5245L83.7983 69.516ZM93.4934 67.4638C92.6711 67.3628 91.9227 67.9475 91.8217 68.7698C91.7208 69.592 92.3055 70.3404 93.1277 70.4414L93.4934 67.4638ZM98.7011 71.2056C99.5202 71.3298 100.285 70.7665 100.409 69.9474C100.533 69.1284 99.9699 68.3637 99.1509 68.2395L98.7011 71.2056ZM108.526 69.9022C107.715 69.7361 106.922 70.2593 106.756 71.0709C106.59 71.8825 107.113 72.6751 107.925 72.8412L108.526 69.9022ZM113.435 74.068C114.241 74.2607 115.05 73.7638 115.243 72.958C115.436 72.1523 114.939 71.343 114.133 71.1503L113.435 74.068ZM123.438 73.5819C122.64 73.3581 121.812 73.8234 121.588 74.621C121.365 75.4186 121.83 76.2466 122.627 76.4704L123.438 73.5819ZM128.117 78.0566C128.911 78.2919 129.746 77.8388 129.981 77.0445C130.216 76.2502 129.763 75.4155 128.969 75.1802L128.117 78.0566ZM138.131 77.9595C137.339 77.7163 136.5 78.161 136.257 78.9529C136.014 79.7448 136.458 80.584 137.25 80.8273L138.131 77.9595ZM142.738 82.5086C143.531 82.7498 144.369 82.3029 144.61 81.5104C144.851 80.7179 144.404 79.8798 143.612 79.6386L142.738 82.5086ZM152.752 82.3433C151.955 82.1168 151.125 82.5792 150.899 83.376C150.672 84.1729 151.134 85.0025 151.931 85.229L152.752 82.3433ZM157.492 86.7533C158.293 86.964 159.113 86.4853 159.324 85.6841C159.534 84.8829 159.056 84.0627 158.255 83.852L157.492 86.7533ZM167.481 86.0598C166.671 85.8875 165.874 86.4047 165.702 87.215C165.53 88.0253 166.047 88.8219 166.857 88.9942L167.481 86.0598ZM172.543 90.0961C173.359 90.2381 174.136 89.6916 174.278 88.8754C174.42 88.0593 173.873 87.2825 173.057 87.1405L172.543 90.0961ZM182.413 88.418C181.589 88.3383 180.856 88.9422 180.776 89.7668C180.696 90.5914 181.3 91.3244 182.125 91.4041L182.413 88.418ZM268.397 199.544C267.535 199.989 266.651 200.441 265.748 200.895L267.098 203.575C268.01 203.115 268.903 202.659 269.775 202.209L268.397 199.544ZM256.76 205.227C254.987 206.044 253.166 206.86 251.304 207.669L252.499 210.421C254.382 209.603 256.223 208.777 258.015 207.952L256.76 205.227ZM242.084 211.467C240.241 212.184 238.371 212.885 236.481 213.565L237.496 216.388C239.412 215.699 241.305 214.989 243.171 214.263L242.084 211.467ZM227.041 216.716C225.14 217.299 223.227 217.853 221.309 218.373L222.095 221.269C224.046 220.74 225.99 220.176 227.92 219.584L227.041 216.716ZM211.65 220.677C209.694 221.075 207.741 221.43 205.797 221.736L206.262 224.699C208.254 224.386 210.251 224.023 212.249 223.616L211.65 220.677ZM195.974 222.841C193.983 222.97 192.013 223.034 190.069 223.029L190.061 226.029C192.076 226.035 194.114 225.968 196.168 225.835L195.974 222.841ZM180.279 222.349C178.318 222.067 176.401 221.695 174.533 221.224L173.801 224.133C175.775 224.631 177.795 225.023 179.852 225.318L180.279 222.349ZM165.428 217.919C163.693 217.066 162.024 216.094 160.428 214.998L158.729 217.471C160.449 218.652 162.244 219.696 164.103 220.611L165.428 217.919ZM153.229 208.596C151.991 207.186 150.823 205.654 149.731 203.994L147.224 205.643C148.391 207.417 149.643 209.059 150.974 210.575L153.229 208.596ZM145.252 195.387C144.887 194.486 144.538 193.56 144.205 192.606L141.372 193.593C141.721 194.593 142.088 195.567 142.472 196.515L145.252 195.387ZM144.205 192.606C144.003 192.026 143.754 191.016 143.455 189.598L140.519 190.218C140.817 191.629 141.1 192.812 141.372 193.593L144.205 192.606ZM141.384 178.776C140.986 176.688 140.555 174.486 140.089 172.25L137.152 172.862C137.613 175.076 138.041 177.259 138.437 179.338L141.384 178.776ZM137.531 161.414C136.912 159.15 136.247 156.974 135.531 154.984L132.708 155.999C133.39 157.896 134.032 159.993 134.637 162.205L137.531 161.414ZM129.276 144.9C127.923 144.065 126.381 143.83 124.785 144.442L125.86 147.243C126.498 146.998 127.065 147.06 127.701 147.453L129.276 144.9ZM124.785 144.442C123.893 144.785 122.986 145.115 122.066 145.432L123.044 148.268C123.995 147.94 124.935 147.598 125.86 147.243L124.785 144.442ZM112.77 148.109C110.901 148.551 109 148.946 107.076 149.294L107.61 152.246C109.584 151.889 111.537 151.483 113.46 151.029L112.77 148.109ZM97.4652 150.629C95.5342 150.818 93.5952 150.962 91.6558 151.061L91.8079 154.057C93.7941 153.956 95.7801 153.808 97.758 153.614L97.4652 150.629ZM81.9507 151.17C79.9967 151.114 78.0566 151.01 76.1389 150.858L75.9017 153.848C77.8708 154.004 79.8612 154.111 81.8645 154.169L81.9507 151.17ZM66.5305 149.654C65.5707 149.486 64.6214 149.305 63.6836 149.111L63.0745 152.048C64.044 152.249 65.0245 152.436 66.0146 152.609L66.5305 149.654ZM63.6836 149.111C62.6133 148.889 61.561 148.662 60.5264 148.43L59.8684 151.357C60.9215 151.594 61.9902 151.823 63.0745 152.048L63.6836 149.111ZM50.2078 145.637C48.1423 144.952 46.1673 144.199 44.2788 143.355L43.0551 146.094C45.0475 146.984 47.1172 147.772 49.2633 148.484L50.2078 145.637ZM35.2515 138.056C33.6199 136.808 32.0676 135.421 30.592 133.871L28.4189 135.939C30.0041 137.605 31.6737 139.096 33.4285 140.439L35.2515 138.056ZM24.3281 125.475C23.8045 124.586 23.2934 123.66 22.7947 122.695L20.1298 124.073C20.6529 125.085 21.1905 126.059 21.7431 126.997L24.3281 125.475ZM22.7947 122.695C22.2996 121.738 21.8049 120.785 21.3092 119.824L18.643 121.199C19.1386 122.16 19.6387 123.123 20.1298 124.073L22.7947 122.695ZM16.6527 110.214C15.79 108.218 15.0294 106.248 14.4208 104.311L11.5588 105.21C12.2062 107.271 13.007 109.341 13.8991 111.404L16.6527 110.214ZM12.912 94.242C13.0309 92.2476 13.4581 90.3295 14.2631 88.4927L11.5155 87.2884C10.5547 89.4804 10.0552 91.7502 9.91727 94.0635L12.912 94.242ZM20.5764 80.8588C21.3562 80.2642 22.207 79.6796 23.1337 79.1064L21.5557 76.555C20.5515 77.176 19.6197 77.8155 18.7573 78.4732L20.5764 80.8588ZM23.1337 79.1064C23.9032 78.6305 24.6951 78.1736 25.5081 77.7354L24.0848 75.0946C23.2214 75.5599 22.3778 76.0465 21.5557 76.555L23.1337 79.1064ZM33.9397 74.0785C35.6586 73.4839 37.433 72.9476 39.2545 72.4666L38.4885 69.5661C36.6002 70.0647 34.7538 70.6224 32.9588 71.2434L33.9397 74.0785ZM48.3533 70.5635C50.1758 70.2718 52.0256 70.0239 53.8957 69.817L53.5658 66.8352C51.6505 67.0471 49.7524 67.3013 47.8791 67.6012L48.3533 70.5635ZM63.2108 69.1177C65.0767 69.0393 66.9496 68.9954 68.8225 68.9831L68.8029 65.9832C66.8962 65.9957 64.9879 66.0404 63.085 66.1203L63.2108 69.1177ZM78.1848 69.1737C80.0706 69.2609 81.9442 69.3759 83.7983 69.516L84.0242 66.5245C82.1419 66.3823 80.2392 66.2655 78.3234 66.1769L78.1848 69.1737ZM93.1277 70.4414C95.0259 70.6745 96.8867 70.9305 98.7011 71.2056L99.1509 68.2395C97.3086 67.9602 95.4198 67.7003 93.4934 67.4638L93.1277 70.4414ZM107.925 72.8412C108.859 73.0326 109.773 73.228 110.663 73.4268L111.317 70.4989C110.409 70.2961 109.478 70.097 108.526 69.9022L107.925 72.8412ZM110.663 73.4268C111.589 73.6333 112.512 73.8473 113.435 74.068L114.133 71.1503C113.196 70.9262 112.258 70.7088 111.317 70.4989L110.663 73.4268ZM122.627 76.4704C124.459 76.9841 126.288 77.5148 128.117 78.0566L128.969 75.1802C127.13 74.6352 125.286 74.1004 123.438 73.5819L122.627 76.4704ZM137.25 80.8273C139.077 81.3885 140.907 81.9513 142.738 82.5086L143.612 79.6386C141.785 79.0827 139.96 78.5213 138.131 77.9595L137.25 80.8273ZM151.931 85.229C153.78 85.7543 155.633 86.2645 157.492 86.7533L158.255 83.852C156.418 83.369 154.584 82.8641 152.752 82.3433L151.931 85.229ZM166.857 88.9942C168.744 89.3953 170.638 89.7648 172.543 90.0961L173.057 87.1405C171.193 86.8161 169.334 86.4539 167.481 86.0598L166.857 88.9942ZM182.125 91.4041C183.088 91.4971 184.053 91.5782 185.022 91.6465L185.233 88.6539C184.291 88.5875 183.351 88.5086 182.413 88.418L182.125 91.4041Z" fill="#C9CCCD"/>
</svg>
